# xmcd
#
# Track frame offsets:
#	150
#	19965
#	36220
#	57900
#	80975
#	100192
#	116807
#	134245
#	155857
#	174722
#	194137
#	225707
#
# Disc length: 3076 seconds
#
# Revision: 0
# Processed by: cddbd v1.4PL0 Copyright (c) Steve Scherf et al.
# Submitted via: dBpowerAMP V4.0
#
DISCID=ba0c020c
DTITLE=LSG - LSG2
DYEAR=2003
DGENRE=R&B
TTITLE0=Just Friends feat. Loon
TTITLE1=Wide Open
TTITLE2=Shake Down
TTITLE3=Fa-Free
TTITLE4=Yesterday
TTITLE5=Play with Fire
TTITLE6=What About Me
TTITLE7=All I Know
TTITLE8=Lessons Learned
TTITLE9=Can't Get Over You
TTITLE10=Cry and Make Love
TTITLE11=DATA
EXTD=
EXTT0=
EXTT1=
EXTT2=
EXTT3=
EXTT4=
EXTT5=
EXTT6=
EXTT7=
EXTT8=
EXTT9=
EXTT10=
EXTT11=
PLAYORDER=
